<svg width="1024" height="1024" viewBox="0 0 512 512" xmlns="http://www.w3.org/2000/svg" role="img">
<title>Patrick app icon</title>
<rect width="512" height="512" rx="115" fill="#007a55"/>
<g transform="translate(106,106) scale(2.143)">
<g transform="translate(-270,-80)">
<path d="M300 80 H304 A30 30 0 0 1 334 110 V136 A8 8 0 0 1 326 144 H300 A30 30 0 0 1 270 114 V110 A30 30 0 0 1 300 80 Z" fill="#ebf9f1"/>
<path d="M376 80 H380 A30 30 0 0 1 410 110 V114 A30 30 0 0 1 380 144 H354 A8 8 0 0 1 346 136 V110 A30 30 0 0 1 376 80 Z" fill="#ebf9f1"/>
<path d="M300 156 H326 A8 8 0 0 1 334 164 V190 A30 30 0 0 1 304 220 H300 A30 30 0 0 1 270 190 V186 A30 30 0 0 1 300 156 Z" fill="#ebf9f1"/>
<path d="M354 156 H380 A30 30 0 0 1 410 186 V190 A30 30 0 0 1 380 220 H376 A30 30 0 0 1 346 190 V164 A8 8 0 0 1 354 156 Z" fill="#e76b41"/></g></g>
</svg>
