<svg xmlns="http://www.w3.org/2000/svg" viewBox="0 0 24 24">
  <defs>
    <linearGradient id="g" x1="0%" y1="0%" x2="100%" y2="100%">
      <stop offset="0%" stop-color="#3d9978"/>
      <stop offset="100%" stop-color="#2a7057"/>
    </linearGradient>
  </defs>
  <rect width="24" height="24" rx="5" fill="url(#g)"/>
  <g transform="translate(3,3) scale(0.75)" stroke="white" stroke-width="2.7" stroke-linecap="round" stroke-linejoin="round" fill="none">
    <path d="M16.17 7.83 2 22"/>
    <path d="M4.02 12a2.827 2.827 0 1 1 3.81-4.17A2.827 2.827 0 1 1 12 4.02a2.827 2.827 0 1 1 4.17 3.81A2.827 2.827 0 1 1 19.98 12a2.827 2.827 0 1 1-3.81 4.17A2.827 2.827 0 1 1 12 19.98a2.827 2.827 0 1 1-4.17-3.81A1 1 0 1 1 4 12"/>
    <path d="m7.83 7.83 8.34 8.34"/>
  </g>
</svg>
