<svg version="1.2" xmlns="http://www.w3.org/2000/svg" viewBox="0 0 1421 1438" width="1421" height="1438">
	<title>OpenAI_Logo-svg</title>
	<style>
		.s0 { fill: #000000 } 
	</style>
	<path id="Layer" fill-rule="evenodd" class="s0" d="m1327.2 588.7c105.6 116.8 123.7 288.4 44.7 424.6-51.1 89.7-138.5 153-239.7 173.7-48.5 149.9-188.4 251.4-346 251-103.3 0.6-201.9-43.3-270.4-120.4-154.2 33-312-37.2-390.6-173.8-52.2-89.1-63.4-196.3-30.8-294.2-105.6-116.8-123.7-288.5-44.6-424.7 51.2-89.8 138.5-153.1 239.8-173.8 48.4-149.7 188.3-251.1 345.8-250.7 103.3-0.7 201.9 43.2 270.4 120.4 154.2-33.1 312 37.2 390.5 173.8 52.3 89 63.5 196.3 30.9 294.2zm-271.6 485.9v-334.2c-0.2-1.5-1-2.7-2.3-3.3l-121.1-69.9v403.6c0.1 16.8-8.9 32.4-23.6 40.7l-286.5 165.3c-2.5 1.6-6.3 3.7-8.5 4.8 48.4 40.4 109.5 62.5 172.6 62.4 148.8-0.3 269.2-120.8 269.4-269.4zm-848.7 22.2c74.6 128.7 239.3 172.8 368.4 98.6l289.6-167.1c1.1-0.9 1.8-2.3 1.7-3.7v-139.7l-349.8 201.8c-14.6 8.5-32.6 8.5-47.1 0l-286.5-165.4c-2.7-1.5-6.4-3.8-8.5-5-10.9 62 0.5 125.9 32.1 180.5zm-75.5-624.9c-74.2 128.9-30 293.5 98.7 367.9l289.7 167.3c1.4 0.5 2.9 0.4 4.1-0.4l121.1-69.9-349.8-201.7c-14.6-8.3-23.6-23.9-23.5-40.7v-330.7c0-3.1 0.1-7.4 0.1-9.9-59.2 21.7-108.9 63.5-140.3 118.1zm995.1 231.3c14.5 8.3 23.5 23.9 23.3 40.7v340.6c59.2-21.8 108.8-63.6 140.3-118.1 74.6-128.8 30.4-293.7-98.6-368.1l-289.7-167.1c-1.4-0.6-2.9-0.5-4.1 0.4l-121.1 69.8 349.8 201.8zm120.5-181.3q-0.1 0-0.1 0 0 0 0 0zm-0.1 0c10.7-61.9-0.7-125.7-32.2-180.1-74.3-128.9-239.3-173.2-368.3-98.8l-289.6 166.9c-1.2 0.9-1.8 2.3-1.8 3.7v139.7l349.9-201.8c14.5-8.5 32.5-8.5 47 0l286.6 165.4c2.6 1.5 6.3 3.7 8.4 5zm-757.7 249l0.2-403.4c-0.1-16.9 8.9-32.4 23.6-40.7l286.5-165.3c2.5-1.6 6.3-3.7 8.5-4.9-48.4-40.2-109.4-62.3-172.4-62.3-149-0.1-269.8 120.5-269.9 269.3v334.2c0.2 1.4 1.1 2.7 2.4 3.3l121.1 69.9zm65.8 38.1l155.8 89.8 155.8-89.8v-179.8l-155.8-89.8-155.8 89.9z"/>
</svg>